<svg width="150" height="34" viewBox="0 0 150 34" fill="none" xmlns="http://www.w3.org/2000/svg">
  <path d="M17 3.33333C12.3333 3.33333 8.33333 7.33333 8.33333 12C8.33333 16.6667 12.3333 20.6667 17 20.6667C21.6667 20.6667 25.6667 16.6667 25.6667 12C25.6667 7.33333 21.6667 3.33333 17 3.33333ZM17 18.3333C13.6667 18.3333 10.6667 15.3333 10.6667 12C10.6667 8.66667 13.6667 5.66667 17 5.66667C20.3333 5.66667 23.3333 8.66667 23.3333 12C23.3333 15.3333 20.3333 18.3333 17 18.3333Z" fill="#E96E50"/>
  <path d="M17 7.33333C14.5 7.33333 12.3333 9.5 12.3333 12C12.3333 14.5 14.5 16.6667 17 16.6667C19.5 16.6667 21.6667 14.5 21.6667 12C21.6667 9.5 19.5 7.33333 17 7.33333ZM17 14.3333C15.8333 14.3333 14.6667 13.1667 14.6667 12C14.6667 10.8333 15.8333 9.66667 17 9.66667C18.1667 9.66667 19.3333 10.8333 19.3333 12C19.3333 13.1667 18.1667 14.3333 17 14.3333Z" fill="#E96E50"/>
  <path d="M42.5 13.5C41.1667 13.5 40 14.1667 39.1667 15.3333V13.8333H35.8333V28.5H39.1667V20.4C39.1667 18.6 40.1667 17.4667 41.5 17.4667C42.8333 17.4667 43.6667 18.6 43.6667 20.4V28.5H47V19.7C47 16 44.8333 13.5 42.5 13.5Z" fill="#1A1A1A"/>
  <path d="M57.1667 13.5C55.8333 13.5 54.6667 14.1667 53.8333 15.3333V13.8333H50.5V28.5H53.8333V20.4C53.8333 18.6 54.8333 17.4667 56.1667 17.4667C57.5 17.4667 58.3333 18.6 58.3333 20.4V28.5H61.6667V19.7C61.6667 16 59.5 13.5 57.1667 13.5Z" fill="#1A1A1A"/>
  <path d="M71.8333 13.5C70.5 13.5 69.3333 14.1667 68.5 15.3333V13.8333H65.1667V28.5H68.5V20.4C68.5 18.6 69.5 17.4667 70.8333 17.4667C72.1667 17.4667 73 18.6 73 20.4V28.5H76.3333V19.7C76.3333 16 74.1667 13.5 71.8333 13.5Z" fill="#1A1A1A"/>
  <path d="M86.5 13.5C85.1667 13.5 84 14.1667 83.1667 15.3333V13.8333H79.8333V28.5H83.1667V20.4C83.1667 18.6 84.1667 17.4667 85.5 17.4667C86.8333 17.4667 87.6667 18.6 87.6667 20.4V28.5H91V19.7C91 16 88.8333 13.5 86.5 13.5Z" fill="#1A1A1A"/>
  <path d="M101.167 13.5C99.8333 13.5 98.6667 14.1667 97.8333 15.3333V13.8333H94.5V28.5H97.8333V20.4C97.8333 18.6 98.8333 17.4667 100.167 17.4667C101.5 17.4667 102.333 18.6 102.333 20.4V28.5H105.667V19.7C105.667 16 103.5 13.5 101.167 13.5Z" fill="#1A1A1A"/>
  <path d="M115.833 13.5C114.5 13.5 113.333 14.1667 112.5 15.3333V13.8333H109.167V28.5H112.5V20.4C112.5 18.6 113.5 17.4667 114.833 17.4667C116.167 17.4667 117 18.6 117 20.4V28.5H120.333V19.7C120.333 16 118.167 13.5 115.833 13.5Z" fill="#1A1A1A"/>
  <path d="M130.5 13.5C129.167 13.5 128 14.1667 127.167 15.3333V13.8333H123.833V28.5H127.167V20.4C127.167 18.6 128.167 17.4667 129.5 17.4667C130.833 17.4667 131.667 18.6 131.667 20.4V28.5H135V19.7C135 16 132.833 13.5 130.5 13.5Z" fill="#1A1A1A"/>
  <path d="M145.167 13.5C143.833 13.5 142.667 14.1667 141.833 15.3333V13.8333H138.5V28.5H141.833V20.4C141.833 18.6 142.833 17.4667 144.167 17.4667C145.5 17.4667 146.333 18.6 146.333 20.4V28.5H149.667V19.7C149.667 16 147.5 13.5 145.167 13.5Z" fill="#1A1A1A"/>
  <path d="M17 22.3333C10.3333 22.3333 5 27.6667 5 34.3333H29C29 27.6667 23.6667 22.3333 17 22.3333Z" fill="#E96E50"/>
</svg> 