<svg width="150" height="34" viewBox="0 0 150 34" fill="none" xmlns="http://www.w3.org/2000/svg">
  <path d="M17 8.5H13.3333V25.5H17V8.5Z" fill="#635BFF"/>
  <path d="M8.5 11.3333C7.7 10.8333 6.63333 10.5 5.36667 10.5C2.63333 10.5 0.666667 12.1667 0.666667 14.5C0.666667 16.4333 2.06667 17.5667 4.13333 18.1667L6 18.7C7.06667 19 7.6 19.4333 7.6 20.1C7.6 21 6.7 21.6333 5.33333 21.6333C3.96667 21.6333 2.9 21.1333 2.13333 20.5L0.666667 23.1667C1.83333 24.0333 3.46667 24.5 5.33333 24.5C8.3 24.5 11.3333 22.9 11.3333 20C11.3333 17.9333 9.93333 16.8333 7.9 16.2333L6.03333 15.7C5.1 15.4667 4.43333 15.1333 4.43333 14.4C4.43333 13.5667 5.23333 13 6.43333 13C7.63333 13 8.66667 13.4667 9.36667 13.9333L10.8333 11.3333H8.5Z" fill="#635BFF"/>
  <path d="M24.5 10.5C23.2333 10.5 22.1667 11.0667 21.4333 11.9667V10.8333H17.8333V25.5H21.5V17.4C21.5 15.6 22.6333 14.4667 24.1667 14.4667C25.7 14.4667 26.6667 15.6 26.6667 17.4V25.5H30.3333V16.7C30.3333 13 28 10.5 24.5 10.5Z" fill="#635BFF"/>
  <path d="M32.1667 21.1667C32.1667 23.5 34.1333 24.5 36.5 24.5C38.1667 24.5 39.3667 24.0667 40.3333 23.2L38.8667 20.8333C38.2 21.3333 37.4333 21.6333 36.5 21.6333C35.2333 21.6333 34.3333 20.9333 34.1667 19.8333H40.8333V18.8333C40.8333 14.8333 38.5 10.5 35 10.5C31.5 10.5 28.5 13.5 28.5 17.5C28.5 21.5 31.5 24.5 35 24.5C36.8333 24.5 38.3333 23.8333 39.5 22.8333L38.0333 20.4667C37.3667 21 36.5 21.3333 35.5 21.3333C34.1667 21.3333 32.8333 20.5 32.1667 19.1667V21.1667ZM32.1667 17.1667C32.6667 15.8333 33.8333 14.8333 35.1667 14.8333C36.5 14.8333 37.6667 15.8333 38.1667 17.1667H32.1667Z" fill="#635BFF"/>
  <path d="M51.8333 10.8333L49.1667 20.1667L46.5 10.8333H43.5L40.8333 20.1667L38.1667 10.8333H34.3333L39 25.5H42.3333L45 16.1667L47.6667 25.5H51L55.6667 10.8333H51.8333Z" fill="#635BFF"/>
  <path d="M65.8333 10.5C64.5667 10.5 63.5 11.0667 62.7667 11.9667V10.8333H59.1667V25.5H62.8333V17.4C62.8333 15.6 63.9667 14.4667 65.5 14.4667C67.0333 14.4667 68 15.6 68 17.4V25.5H71.6667V16.7C71.6667 13 69.3333 10.5 65.8333 10.5Z" fill="#635BFF"/>
  <path d="M80.5 10.5C77 10.5 74 13.5 74 17.5C74 21.5 77 24.5 80.5 24.5C84 24.5 87 21.5 87 17.5C87 13.5 84 10.5 80.5 10.5ZM80.5 21.3333C78.6667 21.3333 77.3333 19.6667 77.3333 17.5C77.3333 15.3333 78.6667 13.6667 80.5 13.6667C82.3333 13.6667 83.6667 15.3333 83.6667 17.5C83.6667 19.6667 82.3333 21.3333 80.5 21.3333Z" fill="#635BFF"/>
  <path d="M97.1667 10.5C95.9 10.5 94.8333 11.0667 94.1 11.9667V10.8333H90.5V25.5H94.1667V17.4C94.1667 15.6 95.3 14.4667 96.8333 14.4667C98.3667 14.4667 99.3333 15.6 99.3333 17.4V25.5H103V16.7C103 13 100.667 10.5 97.1667 10.5Z" fill="#635BFF"/>
  <path d="M111.833 10.5C108.333 10.5 105.333 13.5 105.333 17.5C105.333 21.5 108.333 24.5 111.833 24.5C115.333 24.5 118.333 21.5 118.333 17.5C118.333 13.5 115.333 10.5 111.833 10.5ZM111.833 21.3333C110 21.3333 108.667 19.6667 108.667 17.5C108.667 15.3333 110 13.6667 111.833 13.6667C113.667 13.6667 115 15.3333 115 17.5C115 19.6667 113.667 21.3333 111.833 21.3333Z" fill="#635BFF"/>
  <path d="M128.5 10.5C127.233 10.5 126.167 11.0667 125.433 11.9667V10.8333H121.833V25.5H125.5V17.4C125.5 15.6 126.633 14.4667 128.167 14.4667C129.7 14.4667 130.667 15.6 130.667 17.4V25.5H134.333V16.7C134.333 13 132 10.5 128.5 10.5Z" fill="#635BFF"/>
  <path d="M143.167 10.5C139.667 10.5 136.667 13.5 136.667 17.5C136.667 21.5 139.667 24.5 143.167 24.5C146.667 24.5 149.667 21.5 149.667 17.5C149.667 13.5 146.667 10.5 143.167 10.5ZM143.167 21.3333C141.333 21.3333 140 19.6667 140 17.5C140 15.3333 141.333 13.6667 143.167 13.6667C145 13.6667 146.333 15.3333 146.333 17.5C146.333 19.6667 145 21.3333 143.167 21.3333Z" fill="#635BFF"/>
</svg> 